<svg width="661" height="125" viewBox="0 0 661 125" fill="none" xmlns="http://www.w3.org/2000/svg">
<circle cx="598.5" cy="62.5" r="62.5" fill="white"/>
<rect x="636.391" y="2.61792" width="15.2147" height="139.775" rx="7.60734" transform="rotate(38.4894 636.391 2.61792)" fill="black"/>
<path d="M574.553 96.48C573.465 96.48 572.505 96.096 571.673 95.328C570.905 94.496 570.521 93.536 570.521 92.448C570.521 91.424 570.809 90.528 571.385 89.76L593.561 62.496L571.577 35.424C571.001 34.656 570.713 33.76 570.713 32.736C570.713 31.52 571.097 30.528 571.865 29.76C572.697 28.928 573.721 28.512 574.937 28.512C575.641 28.512 576.313 28.672 576.953 28.992C577.593 29.312 578.105 29.728 578.489 30.24L598.745 55.968L619.001 30.048C619.705 29.024 620.761 28.512 622.169 28.512C623.321 28.512 624.313 28.928 625.145 29.76C625.977 30.528 626.393 31.488 626.393 32.64C626.393 33.536 626.137 34.336 625.625 35.04L603.449 62.4L625.625 89.664C626.201 90.304 626.489 91.136 626.489 92.16C626.489 93.376 626.073 94.4 625.241 95.232C624.473 96.064 623.449 96.48 622.169 96.48C620.761 96.48 619.609 95.872 618.713 94.656L598.169 68.832L577.913 94.752C576.953 95.904 575.833 96.48 574.553 96.48Z" fill="black"/>
<path fill-rule="evenodd" clip-rule="evenodd" d="M598.5 125C633.018 125 661 97.0178 661 62.5C661 45.4286 654.156 29.9558 643.061 18.6759L605.899 65.4126L625.625 89.664C626.201 90.304 626.489 91.136 626.489 92.16C626.489 93.376 626.073 94.4 625.241 95.232C624.473 96.064 623.449 96.48 622.169 96.48C620.761 96.48 619.609 95.872 618.713 94.656L600.675 71.9826L566.043 115.538C565.974 115.625 565.903 115.71 565.831 115.793C575.337 121.632 586.525 125 598.5 125ZM553.939 106.325C554.002 106.238 554.067 106.153 554.134 106.069L591.145 59.5215L571.577 35.424C571.001 34.656 570.713 33.76 570.713 32.736C570.713 31.52 571.097 30.528 571.865 29.76C572.697 28.928 573.721 28.512 574.937 28.512C575.641 28.512 576.313 28.672 576.953 28.992C577.593 29.312 578.105 29.728 578.489 30.24L596.37 52.9512L631.157 9.20038C621.654 3.3649 610.47 0 598.5 0C563.982 0 536 27.9822 536 62.5C536 79.5717 542.845 95.0447 553.939 106.325Z" fill="white"/>
<path fill-rule="evenodd" clip-rule="evenodd" d="M35.0534 29.6499C34.1601 28.8913 33.0456 28.512 31.7099 28.512H30.7499C29.4059 28.512 28.2539 28.896 27.2939 29.664C26.3979 30.368 25.6939 31.296 25.1819 32.448L0.701863 90.24C0.381863 91.008 0.221863 91.648 0.221863 92.16C0.221863 93.376 0.605863 94.4 1.37386 95.232C2.20586 96.064 3.26186 96.48 4.54186 96.48C5.43786 96.48 6.23786 96.256 6.94186 95.808C7.70986 95.296 8.28586 94.624 8.66986 93.792L11.5196 86.9527L35.0534 29.6499ZM47.611 78.9628L53.7899 93.792C54.1739 94.624 54.7179 95.296 55.4219 95.808C56.1899 96.256 57.0219 96.48 57.9179 96.48C59.1979 96.48 60.2219 96.064 60.9899 95.232C61.8219 94.4 62.2379 93.376 62.2379 92.16C62.2379 91.648 62.0779 91.008 61.7579 90.24L56.9789 78.958L47.611 78.9628ZM53.5243 70.8023L39.5022 37.6992L34.9871 48.6932L44.1729 70.8071L53.5243 70.8023ZM106.407 95.232C107.239 96.064 108.263 96.48 109.479 96.48C110.695 96.48 111.719 96.064 112.551 95.232C113.447 94.4 113.895 93.376 113.895 92.16V32.928C113.895 31.712 113.447 30.688 112.551 29.856C111.719 28.96 110.695 28.512 109.479 28.512C108.263 28.512 107.239 28.96 106.407 29.856C105.575 30.688 105.159 31.712 105.159 32.928V92.16C105.159 93.376 105.575 94.4 106.407 95.232ZM173.334 92.544C178.39 95.488 184.278 96.96 190.998 96.96C197.718 96.96 203.574 95.488 208.566 92.544C213.622 89.6 217.526 85.536 220.278 80.352C223.094 75.104 224.566 69.152 224.694 62.496C224.566 55.84 223.094 49.92 220.278 44.736C217.526 39.488 213.622 35.392 208.566 32.448C203.574 29.504 197.718 28.032 190.998 28.032C184.278 28.032 178.39 29.504 173.334 32.448C168.278 35.392 164.374 39.456 161.622 44.64C158.87 49.824 157.43 55.776 157.302 62.496C157.43 69.216 158.87 75.168 161.622 80.352C164.374 85.536 168.278 89.6 173.334 92.544ZM204.342 85.344C200.566 87.648 196.118 88.8 190.998 88.8C185.814 88.8 181.334 87.648 177.558 85.344C173.846 83.04 170.998 79.904 169.014 75.936C167.03 71.968 166.038 67.488 166.038 62.496C166.038 57.504 167.03 53.024 169.014 49.056C170.998 45.088 173.846 41.952 177.558 39.648C181.334 37.344 185.814 36.192 190.998 36.192C196.118 36.192 200.566 37.344 204.342 39.648C208.118 41.952 210.998 45.088 212.982 49.056C214.966 53.024 215.958 57.504 215.958 62.496C215.958 67.488 214.966 71.968 212.982 75.936C210.998 79.904 208.118 83.04 204.342 85.344ZM269.288 95.232C270.12 96.064 271.144 96.48 272.36 96.48C273.576 96.48 274.6 96.064 275.432 95.232C276.328 94.4 276.776 93.376 276.776 92.16V40.224L313.928 93.888C314.504 94.656 315.24 95.296 316.136 95.808C317.032 96.256 317.992 96.48 319.016 96.48H320.168C321.896 96.48 323.368 95.872 324.584 94.656C325.864 93.44 326.504 91.968 326.504 90.24V32.928C326.504 31.712 326.056 30.688 325.16 29.856C324.328 28.96 323.304 28.512 322.088 28.512C320.872 28.512 319.848 28.96 319.016 29.856C318.184 30.688 317.768 31.712 317.768 32.928V84.768L280.808 31.392C279.336 29.472 277.576 28.512 275.528 28.512H274.28C272.552 28.512 271.08 29.152 269.864 30.432C268.648 31.648 268.04 33.12 268.04 34.848V92.16C268.04 93.376 268.456 94.4 269.288 95.232ZM375.631 94.272C376.847 95.424 378.287 96 379.951 96H414.031C415.247 96 416.271 95.584 417.103 94.752C417.999 93.92 418.447 92.896 418.447 91.68C418.447 90.464 417.999 89.44 417.103 88.608C416.271 87.712 415.247 87.264 414.031 87.264H382.639V32.928C382.639 31.712 382.191 30.688 381.295 29.856C380.463 28.96 379.439 28.512 378.223 28.512C377.007 28.512 375.983 28.96 375.151 29.856C374.319 30.688 373.903 31.712 373.903 32.928V89.952C373.903 91.616 374.479 93.056 375.631 94.272ZM470.06 94.08C474.284 96 478.668 96.96 483.212 96.96C487.756 96.96 492.14 96 496.364 94.08C500.588 92.16 504.044 89.248 506.732 85.344C509.42 81.376 510.764 76.544 510.764 70.848V32.928C510.764 31.712 510.316 30.688 509.42 29.856C508.588 28.96 507.564 28.512 506.348 28.512C505.132 28.512 504.108 28.96 503.276 29.856C502.444 30.688 502.028 31.712 502.028 32.928V71.136C502.028 74.976 501.132 78.24 499.34 80.928C497.612 83.616 495.308 85.632 492.428 86.976C489.548 88.32 486.476 88.992 483.212 88.992C479.948 88.992 476.876 88.32 473.996 86.976C471.116 85.632 468.78 83.616 466.988 80.928C465.26 78.24 464.396 74.976 464.396 71.136V32.928C464.396 31.712 463.948 30.688 463.052 29.856C462.22 28.96 461.196 28.512 459.98 28.512C458.764 28.512 457.74 28.96 456.908 29.856C456.076 30.688 455.66 31.712 455.66 32.928V70.848C455.66 76.544 457.004 81.376 459.692 85.344C462.38 89.248 465.836 92.16 470.06 94.08Z" fill="white"/>
</svg>
