<svg width="125" height="125" viewBox="0 0 125 125" fill="none" xmlns="http://www.w3.org/2000/svg">
<path fill-rule="evenodd" clip-rule="evenodd" d="M62.5 125C97.0178 125 125 97.0178 125 62.5C125 45.4286 118.156 29.9558 107.061 18.6759L69.8993 65.4126L89.6249 89.664C90.2009 90.304 90.4889 91.136 90.4889 92.16C90.4889 93.376 90.0729 94.4 89.2409 95.232C88.4729 96.064 87.4489 96.48 86.1689 96.48C84.7609 96.48 83.6089 95.872 82.7129 94.656L64.6753 71.9826L30.0429 115.538C29.9739 115.625 29.9034 115.71 29.8314 115.793C39.3375 121.632 50.5255 125 62.5 125ZM17.9393 106.325C18.0021 106.238 18.067 106.153 18.134 106.069L55.1455 59.5215L35.5769 35.424C35.0009 34.656 34.7129 33.76 34.7129 32.736C34.7129 31.52 35.0969 30.528 35.8649 29.76C36.6969 28.928 37.7209 28.512 38.9369 28.512C39.6409 28.512 40.3129 28.672 40.9529 28.992C41.5929 29.312 42.1049 29.728 42.4889 30.24L60.3697 52.9512L95.1574 9.20038C85.6538 3.3649 74.4698 0 62.5 0C27.9822 0 0 27.9822 0 62.5C0 79.5717 6.8446 95.0447 17.9393 106.325Z" fill="white"/>
</svg>
