<svg width="125" height="125" viewBox="0 0 125 125" fill="none" xmlns="http://www.w3.org/2000/svg">
<path fill-rule="evenodd" clip-rule="evenodd" d="M62.5 125C97.0178 125 125 97.0178 125 62.5C125 45.8719 118.506 30.7605 107.917 19.5632C107.807 19.7258 107.69 19.8853 107.566 20.0415L69.8993 67.4127L89.6249 91.664C90.2009 92.304 90.4889 93.136 90.4889 94.16C90.4889 95.376 90.0729 96.4 89.2409 97.232C88.4729 98.064 87.4489 98.48 86.1689 98.48C84.7609 98.48 83.6089 97.872 82.7129 96.656L64.6753 73.9827L30.9139 116.443C40.1824 121.882 50.977 125 62.5 125ZM18.8217 107.204L55.1455 61.5215L35.5769 37.424C35.0009 36.656 34.7129 35.76 34.7129 34.736C34.7129 33.52 35.0969 32.528 35.8649 31.76C36.6969 30.928 37.7209 30.512 38.9369 30.512C39.6409 30.512 40.3129 30.672 40.9529 30.992C41.5929 31.312 42.1049 31.728 42.4889 32.24L60.3697 54.9512L95.6568 10.5724C95.8479 10.3321 96.0506 10.1064 96.2635 9.8955C86.5263 3.63293 74.9374 0 62.5 0C27.9822 0 0 27.9822 0 62.5C0 80.0198 7.20865 95.8559 18.8217 107.204Z" fill="black"/>
</svg>
